<?xml version="1.0" encoding="utf-8"?>
<!-- Generator: Adobe Illustrator 16.0.0, SVG Export Plug-In . SVG Version: 6.00 Build 0)  -->
<!DOCTYPE svg PUBLIC "-//W3C//DTD SVG 1.1//EN" "http://www.w3.org/Graphics/SVG/1.1/DTD/svg11.dtd">
<svg version="1.1" id="Layer_1" xmlns="http://www.w3.org/2000/svg" xmlns:xlink="http://www.w3.org/1999/xlink" x="0px" y="0px"
	 width="12px" height="12.001px" viewBox="0 0 12 12.001" enable-background="new 0 0 12 12.001" xml:space="preserve">
<circle cx="6" cy="6" r="6"/>
<g>
	<path fill="#FFFFFF" d="M5.231,7.614V6.915c0-0.364,0.084-0.702,0.254-1.016c0.169-0.313,0.355-0.613,0.559-0.902
		c0.203-0.287,0.39-0.564,0.559-0.831C6.772,3.9,6.857,3.631,6.857,3.36c0-0.195-0.081-0.357-0.242-0.489
		C6.455,2.74,6.268,2.674,6.057,2.674c-0.153,0-0.288,0.034-0.407,0.102c-0.118,0.068-0.222,0.155-0.311,0.26
		C5.25,3.142,5.177,3.261,5.117,3.392c-0.06,0.131-0.097,0.264-0.114,0.4l-1.46-0.407C3.704,2.75,4.008,2.261,4.457,1.919
		c0.448-0.343,1.016-0.515,1.701-0.515c0.313,0,0.607,0.044,0.882,0.133C7.316,1.626,7.56,1.756,7.771,1.925
		C7.982,2.095,8.15,2.306,8.272,2.56c0.123,0.254,0.185,0.546,0.185,0.876c0,0.423-0.096,0.785-0.286,1.085
		c-0.191,0.301-0.4,0.586-0.629,0.857C7.314,5.65,7.104,5.923,6.914,6.198S6.628,6.789,6.628,7.144v0.47H5.231z M5.079,10.699V8.896
		h1.752v1.803H5.079z"/>
</g>
</svg>
